<svg width="23" height="20" viewBox="0 0 23 20" fill="none" xmlns="http://www.w3.org/2000/svg">
<path d="M9.28086 10.8332C9.67406 11.3117 10.1757 11.7075 10.7518 11.994C11.3279 12.2805 11.9649 12.4508 12.6197 12.4935C13.2745 12.5362 13.9317 12.4502 14.5467 12.2414C15.1618 12.0326 15.7203 11.7058 16.1844 11.2832L18.9312 8.78322C19.7651 7.99738 20.2265 6.94487 20.2161 5.85238C20.2057 4.7599 19.7242 3.71485 18.8754 2.94231C18.0266 2.16978 16.8784 1.73157 15.6781 1.72208C14.4778 1.71259 13.3214 2.13256 12.458 2.89156L10.8831 4.31656M12.9432 9.16656C12.55 8.68812 12.0484 8.29224 11.4723 8.00577C10.8962 7.71931 10.2592 7.54896 9.60438 7.50628C8.9496 7.4636 8.2924 7.54958 7.67734 7.7584C7.06229 7.96723 6.50377 8.294 6.03967 8.71656L3.2929 11.2166C2.45899 12.0024 1.99756 13.0549 2.00799 14.1474C2.01842 15.2399 2.49987 16.2849 3.34866 17.0575C4.19745 17.83 5.34566 18.2682 6.54599 18.2777C7.74631 18.2872 8.90271 17.8672 9.76612 17.1082L11.3318 15.6832" stroke="#1E1E1E" stroke-width="2" stroke-linecap="round" stroke-linejoin="round"/>
</svg>
