<svg width="241" height="241" viewBox="0 0 241 241" fill="none" xmlns="http://www.w3.org/2000/svg">
<path d="M233 120.5C233 182.632 182.632 233 120.5 233C58.368 233 8 182.632 8 120.5C8 58.368 58.368 8 120.5 8C182.632 8 233 58.368 233 120.5Z" fill="#5562F8"/>
<path d="M83 120.5L108 145.5L158 95.5M233 120.5C233 182.632 182.632 233 120.5 233C58.368 233 8 182.632 8 120.5C8 58.368 58.368 8 120.5 8C182.632 8 233 58.368 233 120.5Z" stroke="white" stroke-width="16" stroke-linecap="round" stroke-linejoin="round"/>
</svg>
