<svg width="23" height="20" viewBox="0 0 23 20" fill="none" xmlns="http://www.w3.org/2000/svg">
<g clip-path="url(#clip0_251_154)">
<path d="M19.3522 8.33325C19.3522 14.1666 11.1119 19.1666 11.1119 19.1666C11.1119 19.1666 2.87158 14.1666 2.87158 8.33325C2.87158 6.34413 3.73976 4.43647 5.28511 3.02995C6.83047 1.62343 8.92643 0.833252 11.1119 0.833252C13.2974 0.833252 15.3933 1.62343 16.9387 3.02995C18.484 4.43647 19.3522 6.34413 19.3522 8.33325Z" stroke="#1E1E1E" stroke-width="2" stroke-linecap="round" stroke-linejoin="round"/>
<path d="M11.1119 10.8333C12.6289 10.8333 13.8587 9.71396 13.8587 8.33325C13.8587 6.95254 12.6289 5.83325 11.1119 5.83325C9.5949 5.83325 8.36513 6.95254 8.36513 8.33325C8.36513 9.71396 9.5949 10.8333 11.1119 10.8333Z" stroke="#1E1E1E" stroke-width="2" stroke-linecap="round" stroke-linejoin="round"/>
</g>
<defs>
<clipPath id="clip0_251_154">
<rect width="21.9742" height="20" fill="white" transform="translate(0.125)"/>
</clipPath>
</defs>
</svg>
