<svg width="23" height="20" viewBox="0 0 23 20" fill="none" xmlns="http://www.w3.org/2000/svg">
<g clip-path="url(#clip0_251_151)">
<path d="M15.7886 17.5V15.8333C15.7886 14.9493 15.4028 14.1014 14.7159 13.4763C14.0291 12.8512 13.0976 12.5 12.1262 12.5H4.80152C3.8302 12.5 2.89867 12.8512 2.21184 13.4763C1.52502 14.1014 1.13916 14.9493 1.13916 15.8333V17.5M21.2821 17.5V15.8333C21.2815 15.0948 21.0115 14.3773 20.5143 13.7936C20.0171 13.2099 19.3211 12.793 18.5354 12.6083M14.873 2.60833C15.6608 2.79192 16.3591 3.20892 16.8577 3.79359C17.3563 4.37827 17.627 5.09736 17.627 5.8375C17.627 6.57764 17.3563 7.29673 16.8577 7.88141C16.3591 8.46608 15.6608 8.88308 14.873 9.06667M12.1262 5.83333C12.1262 7.67428 10.4866 9.16667 8.46388 9.16667C6.44122 9.16667 4.80152 7.67428 4.80152 5.83333C4.80152 3.99238 6.44122 2.5 8.46388 2.5C10.4866 2.5 12.1262 3.99238 12.1262 5.83333Z" stroke="#1E1E1E" stroke-width="2" stroke-linecap="round" stroke-linejoin="round"/>
</g>
<defs>
<clipPath id="clip0_251_151">
<rect width="21.9742" height="20" fill="white" transform="translate(0.223633)"/>
</clipPath>
</defs>
</svg>
